<?xml version="1.0" encoding="UTF-8" standalone="no"?>
<svg
   fill="#000"
   width="800"
   height="800"
   viewBox="144 144 512 512"
   version="1.1"
   id="svg1"
   sodipodi:docname="npntransistor.svg"
   inkscape:version="1.3 (0e150ed6c4, 2023-07-21)"
   xmlns:inkscape="http://www.inkscape.org/namespaces/inkscape"
   xmlns:sodipodi="http://sodipodi.sourceforge.net/DTD/sodipodi-0.dtd"
   xmlns="http://www.w3.org/2000/svg"
   xmlns:svg="http://www.w3.org/2000/svg">
  <defs
     id="defs1" />
  <sodipodi:namedview
     id="namedview1"
     pagecolor="#ffffff"
     bordercolor="#000000"
     borderopacity="0.25"
     inkscape:showpageshadow="2"
     inkscape:pageopacity="0.0"
     inkscape:pagecheckerboard="0"
     inkscape:deskcolor="#d1d1d1"
     inkscape:zoom="2.21375"
     inkscape:cx="400"
     inkscape:cy="400"
     inkscape:window-width="3840"
     inkscape:window-height="2054"
     inkscape:window-x="2869"
     inkscape:window-y="-11"
     inkscape:window-maximized="1"
     inkscape:current-layer="svg1" />
  <path
     id="path1"
	 class="primarycolor"
	 fill="#000000"
     stroke-width="1"
     stroke-opacity="0"
     d="m 503.47266,170.73047 c 0,35.13346 0,70.26693 0,105.40039 -21.17444,-17.76456 -46.946,-30.0914 -74.17056,-35.00247 -30.41631,-5.59095 -62.44449,-2.30829 -91.00989,9.58573 -29.2579,12.09864 -54.7859,33.03082 -72.37071,59.36105 -14.17446,21.1281 -23.23325,45.67908 -26.03351,70.97565 -0.31651,2.84655 -0.57179,5.70058 -0.73174,8.56051 -23.23698,-0.001 -46.47396,-0.003 -69.71094,-0.004 0,6.75651 0,13.51302 0,20.26953 23.23633,0 46.47266,0 69.70899,0 1.65237,29.00754 11.43796,57.49228 27.93002,81.41104 17.04672,24.86582 41.13673,44.86715 68.79556,56.89032 22.19077,9.68398 46.59225,14.25541 70.78462,13.21077 24.01257,-0.98182 47.78886,-7.42621 68.97807,-18.77513 9.8912,-5.26783 19.22574,-11.57382 27.83009,-18.75262 -0.001,35.5625 -0.003,71.125 -0.004,106.6875 6.75651,0 13.51302,0 20.26953,0 0.001,-42.29297 0.003,-84.58594 0.004,-126.87891 17.74154,-21.03887 30.0593,-46.67344 35.03871,-73.76194 5.67159,-30.53118 2.56914,-62.73232 -9.37576,-91.4356 -6.3244,-15.25358 -15.02053,-29.51727 -25.66295,-42.1423 0,-42.29297 0,-84.58594 0,-126.87891 -6.75651,0 -13.51302,0 -20.26953,0 0,0.42643 0,0.85287 0,1.2793 z m -103.48828,88.50976 c 4.21768,0.0169 8.34168,0.19857 12.5332,0.55274 3.90304,0.34703 8.05274,0.88496 12.03289,1.58312 23.07749,4.00491 45.07536,13.96774 63.34416,28.62087 2.06317,1.64582 4.07844,3.3519 6.04287,5.11437 -40.61003,13.53776 -81.22005,27.07552 -121.83008,40.61328 -0.001,-13.44271 -0.003,-26.88542 -0.004,-40.32813 -6.75651,0 -13.51303,0 -20.26954,0 0,31.57162 0,63.14323 0,94.71485 -30.94661,0 -61.89322,0 -92.83984,0 1.32609,-18.12937 6.25817,-36.09953 14.43938,-52.40077 2.73163,-5.4856 5.76846,-10.67532 9.18168,-15.74315 11.30014,-16.8083 26.35094,-31.29046 43.68527,-41.90188 7.51319,-4.61329 15.55852,-8.55891 23.73273,-11.67491 3.57641,-1.35414 7.19657,-2.56813 10.81992,-3.61488 5.75583,-1.66608 11.82994,-3.00266 17.75963,-3.91007 7.09726,-1.07968 14.18676,-1.61229 21.37163,-1.62544 z m 110.18359,52.78711 c 3.22172,4.04656 6.24564,8.28256 8.98616,12.60316 3.51106,5.52711 6.65594,11.3225 9.35483,17.23086 6.73495,14.6746 10.92623,30.51609 12.26448,46.60934 0.55135,6.46869 0.62263,13.12123 0.2438,19.68144 -0.18155,3.29936 -0.50778,6.78125 -0.94302,10.13888 -1.02475,7.87695 -2.7554,15.83569 -5.14702,23.48065 -5.27603,16.96272 -13.94535,33.00916 -25.2033,46.82329 -0.8574,1.02969 -1.68673,2.09276 -2.60281,3.06715 -18.23705,-12.04286 -36.47353,-24.08659 -54.71093,-36.12891 -1.47057,4.22639 -2.94005,8.45315 -4.41016,12.67969 -25.29948,-8.38151 -50.59896,-16.76302 -75.89844,-25.14453 0,-28.71615 0,-57.43229 0,-86.14844 45.81576,-15.2181 91.63151,-30.4362 137.44727,-45.6543 0.20638,0.25391 0.41276,0.50782 0.61914,0.76172 z m -236.73633,98.35352 c 26.29948,0 52.59896,0 78.89844,0 -0.004,30.13995 0.009,60.28051 -0.007,90.42009 -0.1939,1.47796 0.40309,3.30435 2.00562,3.69368 1.18222,0.3 2.40866,-0.005 3.61201,0.10107 4.88619,0 9.77239,0 14.65859,0 0,-13.4388 0,-26.8776 0,-40.3164 23.11719,7.75455 46.23437,15.50911 69.35156,23.26367 -1.47581,4.24287 -2.95271,8.48537 -4.42773,12.72851 19.31915,1.10487 38.63799,2.21527 57.95703,3.32227 -9.16136,8.58384 -19.4996,15.90502 -30.61719,21.73437 -15.67489,8.21959 -33.06861,13.4596 -50.73908,15.21371 -8.5817,0.86618 -17.35861,0.93614 -25.96992,0.21512 -7.95706,-0.66487 -15.81517,-2.00005 -23.56721,-4.01057 -6.70327,-1.74589 -13.39839,-4.0199 -19.74527,-6.73271 -20.88844,-8.898 -39.5513,-22.92491 -53.94078,-40.48483 -10.28831,-12.53465 -18.47433,-26.96753 -23.86475,-42.32764 -3.94512,-11.13827 -6.44162,-22.92579 -7.41713,-34.68167 -0.051,-0.70776 -0.11343,-1.41475 -0.15625,-2.12305 4.65625,-0.005 9.3125,-0.0104 13.96875,-0.0156 z" />
</svg>
