<?xml version="1.0" encoding="UTF-8" standalone="no"?>
<svg
   fill="#000"
   width="800"
   height="800"
   viewBox="144 144 512 512"
   version="1.1"
   id="svg1"
   sodipodi:docname="pnptransistor.svg"
   inkscape:version="1.3 (0e150ed6c4, 2023-07-21)"
   xmlns:inkscape="http://www.inkscape.org/namespaces/inkscape"
   xmlns:sodipodi="http://sodipodi.sourceforge.net/DTD/sodipodi-0.dtd"
   xmlns="http://www.w3.org/2000/svg"
   xmlns:svg="http://www.w3.org/2000/svg">
  <defs
     id="defs1" />
  <sodipodi:namedview
     id="namedview1"
     pagecolor="#ffffff"
     bordercolor="#000000"
     borderopacity="0.25"
     inkscape:showpageshadow="2"
     inkscape:pageopacity="0.0"
     inkscape:pagecheckerboard="0"
     inkscape:deskcolor="#d1d1d1"
     inkscape:zoom="1.5653576"
     inkscape:cx="342.73318"
     inkscape:cy="434.72494"
     inkscape:window-width="3840"
     inkscape:window-height="2054"
     inkscape:window-x="2869"
     inkscape:window-y="-11"
     inkscape:window-maximized="1"
     inkscape:current-layer="svg1" />
  <path
     id="path1"
	 class="primarycolor"
	 fill="#000000"
     stroke-width="1"
     stroke-opacity="0"
     d="m 503.47266,170.73047 c 0,35.13346 0,70.26693 0,105.40039 -21.17444,-17.76456 -46.946,-30.0914 -74.17056,-35.00247 -30.41631,-5.59095 -62.44449,-2.30829 -91.00989,9.58573 -29.2579,12.09864 -54.7859,33.03082 -72.37071,59.36105 -14.17446,21.1281 -23.23325,45.67908 -26.03351,70.97565 -0.31651,2.84655 -0.57179,5.70058 -0.73174,8.56051 -23.23698,-0.001 -46.47396,-0.003 -69.71094,-0.004 0,6.75651 0,13.51302 0,20.26953 23.23633,0 46.47266,0 69.70899,0 1.65237,29.00754 11.43796,57.49228 27.93002,81.41104 17.04672,24.86582 41.13673,44.86715 68.79556,56.89032 22.19077,9.68398 46.59225,14.25541 70.78462,13.21077 24.01257,-0.98182 47.78886,-7.42621 68.97807,-18.77513 9.8912,-5.26783 19.22574,-11.57382 27.83009,-18.75262 -0.001,35.5625 -0.003,71.125 -0.004,106.6875 6.75651,0 13.51302,0 20.26953,0 0.001,-42.29297 0.003,-84.58594 0.004,-126.87891 17.74154,-21.03887 30.0593,-46.67344 35.03871,-73.76194 5.67159,-30.53118 2.56914,-62.73232 -9.37576,-91.4356 -6.3244,-15.25358 -15.02053,-29.51727 -25.66295,-42.1423 0,-42.29297 0,-84.58594 0,-126.87891 -6.75651,0 -13.51302,0 -20.26953,0 0,0.42643 0,0.85287 0,1.2793 z m -107.79883,85.47461 c 0.0364,0.50423 -1.13167,0.33203 -0.63086,-0.10938 0.17133,-0.23749 0.42635,0.0731 0.63086,0.10938 z m 4.31055,3.03515 c 4.20031,0.0161 8.40033,0.20099 12.51562,0.55274 14.02711,1.22579 28.04989,4.59679 41.133,10.00235 14.74505,6.05503 28.42255,14.67643 40.29669,25.30624 -22.11654,7.32357 -44.23308,14.64714 -66.34961,21.97071 -1.46864,-4.2214 -2.93845,-8.44238 -4.40625,-12.66407 -17.02446,11.18236 -34.0453,22.37021 -51.06836,33.55469 -0.001,-14.1888 -0.003,-28.3776 -0.004,-42.56641 -6.75716,0 -13.51432,0 -20.27148,0 0,31.57162 0,63.14323 0,94.71485 -30.94531,0 -61.89063,0 -92.83594,0 1.17957,-16.13885 5.21906,-32.20614 11.8847,-47.02742 4.97301,-11.09843 11.47985,-21.7078 19.19437,-31.20721 11.26844,-13.94066 25.30755,-25.81885 40.99165,-34.6144 11.94449,-6.72273 25.0006,-11.71514 38.42928,-14.69394 5.82918,-1.2936 11.93598,-2.23334 17.86455,-2.75726 4.10712,-0.3759 8.42554,-0.56174 12.62569,-0.57087 z m 110.18359,52.78711 c 3.22172,4.04656 6.24564,8.28256 8.98616,12.60316 3.51106,5.52711 6.65594,11.3225 9.35483,17.23086 6.12162,13.34559 10.14869,27.65262 11.83284,42.2402 0.44451,3.91341 0.75369,8.09243 0.8556,12.14611 0.16264,5.88148 -0.0589,11.77273 -0.64076,17.62733 -0.1669,1.5464 -0.35027,3.22797 -0.56726,4.77759 -2.04717,15.13801 -6.6483,29.91024 -13.43274,43.59155 -1.74175,3.49455 -3.7366,7.14324 -5.83099,10.58096 -3.36044,5.54134 -7.09719,10.85471 -11.17487,15.8917 -45.64779,-15.2168 -91.29557,-30.4336 -136.94336,-45.65039 0,-30.11589 0,-60.23177 0,-90.34766 21.98047,-1.37505 43.96096,-2.74969 65.94141,-4.125 -1.47139,-4.22307 -2.94133,-8.44664 -4.41211,-12.66992 25.13476,-8.22266 50.26953,-16.44531 75.4043,-24.66797 0.20898,0.25716 0.41796,0.51432 0.62695,0.77148 z M 352.33008,500.70117 c -0.20108,1.47401 0.31699,3.30846 1.90234,3.76758 1.20925,0.34528 2.47324,0.0164 3.7086,0.12695 4.88619,0 9.77239,0 14.65859,0 0,-13.44271 0,-26.88541 0,-40.32812 40.60937,13.53776 81.21875,27.07552 121.82812,40.61328 -4.39795,3.94935 -9.18326,7.72189 -14.07287,11.08951 -4.27834,2.94953 -8.80477,5.70781 -13.38464,8.16611 -8.75143,4.68784 -18.02744,8.45065 -27.53116,11.17103 -11.36294,3.25645 -23.21547,5.07109 -35.03621,5.38571 -11.97637,0.32359 -23.82218,-0.84364 -35.52401,-3.52259 -7.87024,-1.81584 -15.49391,-4.28242 -22.95501,-7.40891 -3.64594,-1.54043 -7.23235,-3.23146 -10.76932,-5.08959 -8.78966,-4.60785 -17.12783,-10.17488 -24.78395,-16.55128 -12.34232,-10.25739 -23.07203,-22.77532 -31.27659,-36.66458 -1.86044,-3.14551 -3.54923,-6.26294 -5.1429,-9.49905 -3.06932,-6.21687 -5.68504,-12.71289 -7.80068,-19.35956 -2.33912,-7.36077 -4.11958,-15.20939 -5.19727,-23.00782 -0.44153,-3.24599 -0.78482,-6.48437 -0.99609,-9.71289 30.79102,-0.001 61.58203,-0.003 92.37305,-0.004 0,30.27604 0,60.55208 0,90.82812 z" />
</svg>
