<?xml version="1.0" encoding="UTF-8" standalone="no"?>
<svg
   width="800"
   height="800"
   viewBox="144 144 512 512"
   version="1.1"
   id="svg2"
   sodipodi:docname="wire.svg"
   inkscape:version="1.3 (0e150ed6c4, 2023-07-21)"
   xmlns:inkscape="http://www.inkscape.org/namespaces/inkscape"
   xmlns:sodipodi="http://sodipodi.sourceforge.net/DTD/sodipodi-0.dtd"
   xmlns="http://www.w3.org/2000/svg"
   xmlns:svg="http://www.w3.org/2000/svg">
  <sodipodi:namedview
     id="namedview2"
     pagecolor="#ffffff"
     bordercolor="#000000"
     borderopacity="0.25"
     inkscape:showpageshadow="2"
     inkscape:pageopacity="0.0"
     inkscape:pagecheckerboard="0"
     inkscape:deskcolor="#d1d1d1"
     inkscape:zoom="1.5653576"
     inkscape:cx="353.59333"
     inkscape:cy="411.08818"
     inkscape:window-width="3840"
     inkscape:window-height="2054"
     inkscape:window-x="2869"
     inkscape:window-y="-11"
     inkscape:window-maximized="1"
     inkscape:current-layer="svg2" />
  <path
     id="path2-9"
     style="fill:#263336;fill-opacity:1"
	 stroke-opacity="0"
     inkscape:label="path2-9"
     d="m 269.52734,212.29883 c -4.55813,0.0418 -9.12037,-0.0106 -13.67595,0.0899 -9.82795,0.76712 -18.83328,8.03608 -21.48811,17.55851 -0.32484,1.10078 -0.57921,2.22276 -0.75195,3.35742 -3.66332,-0.0415 -7.46035,0.33874 -10.71939,2.14612 -6.3354,3.21679 -10.69939,10.09735 -10.60495,17.24249 -0.0462,6.92 3.82802,13.79133 9.96496,17.07818 3.43799,1.91196 7.43512,2.69918 11.34766,2.50977 1.16645,8.27296 6.92415,15.66997 14.59153,18.9501 3.57982,1.59625 7.53631,2.18719 11.43659,2.04293 17.18493,0.004 34.3704,0.0473 51.55494,-0.0567 7.60623,0.0327 14.94994,-4.03763 19.42077,-10.11214 2.40317,-3.23005 3.90362,-7.09239 4.4825,-11.06639 57.666,-1.4685 115.37024,-1.35417 173.03342,0.18238 2.91436,0.0803 5.93381,0.0487 8.64908,1.26992 5.32236,2.1113 9.46206,6.98266 10.55775,12.6189 1.22351,5.87271 -0.83434,12.31818 -5.34048,16.30435 -3.20732,2.90593 -7.46521,4.53214 -11.78731,4.50179 -45.47605,-0.0212 -90.9529,-0.009 -136.42926,-0.004 -28.58439,0.0153 -57.16924,-0.004 -85.75334,0.0328 -16.73993,0.33667 -33.0944,8.72689 -43.16775,22.09546 -8.21224,10.71505 -12.39377,24.45921 -11.40413,37.93478 0.87474,13.2279 6.56745,26.10559 15.91166,35.53155 9.44277,9.66767 22.44485,15.84398 35.95363,16.75265 5.66564,0.3842 11.34808,0.0947 17.02126,0.18026 69.7108,-5e-5 139.42216,-0.001 209.1326,0.0396 7.50927,0.36406 14.39008,6.23596 15.81597,13.63898 1.14072,5.16459 -0.24713,10.81602 -3.70873,14.82512 -3.25051,3.87783 -8.25996,6.19962 -13.32498,6.12929 -5.41133,0.0314 -10.82368,6.3e-4 -16.23556,0.0134 -68.6468,0.005 -137.29393,-0.0156 -205.9405,0.0361 -16.27377,0.32018 -32.19727,8.22806 -42.3305,20.95933 -8.76523,10.85412 -13.3075,25.05168 -12.30302,38.98171 0.85865,13.23787 6.53181,26.13689 15.87652,35.57822 9.30599,9.55513 22.08679,15.70681 35.40648,16.7513 5.77219,0.45251 11.5668,0.13369 17.34922,0.22656 54.26771,0 108.53542,0 162.80312,0 1.16036,8.23733 6.86054,15.61215 14.47672,18.92227 3.60069,1.62649 7.58799,2.23835 11.52016,2.09233 17.05809,-0.006 34.11673,0.0732 51.17444,-0.0594 7.67625,0.18099 15.14799,-3.84431 19.71145,-9.93469 2.43877,-3.20034 3.95027,-7.04589 4.56059,-11.01075 3.72466,0.0449 7.59008,-0.36212 10.88553,-2.23461 6.28836,-3.26879 10.58711,-10.16515 10.43996,-17.29234 0.002,-7.02376 -4.05552,-13.95851 -10.35685,-17.15048 -3.34621,-1.77172 -7.19358,-2.46074 -10.95692,-2.29914 -1.10249,-7.76633 -6.23051,-14.77581 -13.21868,-18.30524 -3.86967,-2.00764 -8.27139,-2.85232 -12.61296,-2.68572 -17.08544,-0.003 -34.17146,-0.0583 -51.25651,0.0503 -9.03732,-0.21348 -17.76167,5.31941 -21.89232,13.2805 -1.25149,2.39815 -2.03013,5.02093 -2.45898,7.68554 -58.81574,-0.008 -117.63207,0.0128 -176.44744,-0.0456 -6.9313,-0.36973 -13.35606,-5.3611 -15.36714,-12.01602 -1.71458,-5.32638 -0.69221,-11.47558 2.81887,-15.86084 3.06949,-4.02137 7.97221,-6.57954 13.04117,-6.69274 3.28421,-0.0982 6.57113,0.0337 9.85688,-0.0148 69.0733,-0.0233 138.14663,-0.0118 207.21992,-0.0542 4.06421,-0.014 8.14908,0.12142 12.18055,-0.50453 14.48589,-2.02049 28.08278,-9.91086 36.89494,-21.60411 8.05205,-10.52042 12.24084,-23.949 11.44533,-37.18676 -0.69988,-13.0701 -6.08131,-25.86645 -15.09907,-35.37642 -9.33667,-9.98714 -22.39548,-16.48004 -36.04973,-17.58419 -5.8818,-0.48999 -11.7894,-0.14453 -17.68295,-0.24334 -69.72228,-0.002 -139.44503,-0.001 -209.16701,-0.0371 -7.37446,-0.33613 -14.16987,-5.96642 -15.78628,-13.18632 -0.88242,-3.62714 -0.55285,-7.53648 0.92126,-10.96595 0.29895,-0.70595 0.78734,-1.65956 1.27225,-2.39673 2.60955,-4.10434 6.96738,-7.06197 11.78727,-7.81939 2.81328,-0.43626 5.6736,-0.16167 8.50805,-0.23921 70.60156,-0.006 141.20314,0.001 211.80468,-0.0368 3.69889,0.006 7.4139,0.069 11.0815,-0.49778 14.6533,-2.02431 28.40701,-10.05804 37.22612,-21.95621 7.95748,-10.5668 12.0505,-24.00187 11.16014,-37.21461 -0.79172,-13.3466 -6.49823,-26.36556 -15.91584,-35.87715 -9.3834,-9.61716 -22.28793,-15.78715 -35.71519,-16.75119 -5.76367,-0.41676 -11.54612,-0.10862 -17.31836,-0.19921 -54.16732,0 -108.33463,0 -162.50195,0 -1.08756,-7.67247 -6.08795,-14.62328 -12.95703,-18.18629 -3.96411,-2.11403 -8.50081,-3.03135 -12.97695,-2.8413 -13.19779,3e-5 -26.39558,-0.0109 -39.59337,0.01 z" />
  <path
     class="primarycolor"
     fill="#000000"
     stroke-width="1"
     stroke-opacity="0"
     d="m 296.27,207.37 c -2.4023,0.0664 -2.4023,2.5352 0,7.4062 0,12.277 -9.9531,22.227 -22.227,22.227 h -74.09 c -12.277,0 -22.227,-9.9492 -22.227,-22.227 V 207.37 h -14.82 c -8.1836,0 -14.816,-6.6367 -14.816,-14.82 0,-8.1833 6.6328,-14.816 14.816,-14.816 h 14.82 v -7.4102 c 0,-12.273 9.9492,-22.227 22.227,-22.227 h 74.09 c 12.273,0 22.227,9.9531 22.227,22.227 v 7.4102 h 259.31 c 36.828,0 66.68,29.852 66.68,66.68 0,36.828 -29.852,66.68 -66.68,66.68 H 244.4 c -20.461,0 -37.043,16.586 -37.043,37.047 0,20.457 16.582,37.043 37.043,37.043 h 311.18 c 36.828,0 66.68,29.855 66.68,66.68 0,36.828 -29.852,66.684 -66.68,66.684 H 244.4 c -20.461,0 -37.043,16.586 -37.043,37.043 0,20.461 16.582,37.047 37.043,37.047 h 259.31 v -7.4102 c 0,-12.277 9.9531,-22.227 22.227,-22.227 h 74.09 c 12.277,0 22.227,9.9492 22.227,22.227 v 7.4102 h 14.82 c 8.1836,0 14.816,6.6328 14.816,14.816 0,8.1836 -6.6328,14.816 -14.816,14.816 h -14.82 v 7.4102 c 0,12.277 -9.9492,22.227 -22.227,22.227 h -74.09 c -12.273,0 -22.227,-9.9492 -22.227,-22.227 V 622.27 H 244.4 c -36.828,0 -66.68,-29.852 -66.68,-66.68 0,-36.824 29.852,-66.68 66.68,-66.68 h 311.18 c 20.461,0 37.047,-16.586 37.047,-37.047 0,-20.457 -16.586,-37.043 -37.047,-37.043 H 244.4 c -36.828,0 -66.68,-29.855 -66.68,-66.68 0,-36.828 29.852,-66.68 66.68,-66.68 h 311.18 c 20.461,0 37.047,-16.586 37.047,-37.047 0,-20.461 -16.586,-37.043 -37.047,-37.043 -88.84,-2.4023 -175.28,-2.4023 -259.31,0 z"
     id="path2"
     transform="matrix(0.70946982,0,0,0.70946982,116.20917,116.21161)"
     inkscape:label="path2" />
</svg>
